<svg width="200" height="200" viewBox="0 0 200 200" fill="none" xmlns="http://www.w3.org/2000/svg">
<rect width="200" height="200" rx="100" fill="white"/>
<rect x="10" y="10" width="180" height="180" rx="90" fill="url(#paint0_linear_1_2)"/>
<path d="M150 100C150 127.614 127.614 150 100 150C72.3858 150 50 127.614 50 100C50 72.3858 72.3858 50 100 50C127.614 50 150 72.3858 150 100Z" fill="white"/>
<path d="M140 100C140 122.091 122.091 140 100 140C77.9086 140 60 122.091 60 100C60 77.9086 77.9086 60 100 60C122.091 60 140 77.9086 140 100Z" fill="url(#paint1_linear_1_2)"/>
<path d="M70 85H85V100H70V85Z" fill="white"/>
<path d="M92.5 85H107.5V100H92.5V85Z" fill="white"/>
<path d="M115 85H130V100H115V85Z" fill="white"/>
<path d="M70 107.5H130V122.5H70V107.5Z" fill="white"/>
<defs>
<linearGradient id="paint0_linear_1_2" x1="10" y1="10" x2="190" y2="190" gradientUnits="userSpaceOnUse">
<stop stop-color="#1976D2"/>
<stop offset="1" stop-color="#42A5F5"/>
</linearGradient>
<linearGradient id="paint1_linear_1_2" x1="60" y1="60" x2="140" y2="140" gradientUnits="userSpaceOnUse">
<stop stop-color="#1976D2"/>
<stop offset="1" stop-color="#42A5F5"/>
</linearGradient>
</defs>
</svg>